<?xml version="1.0" standalone="no"?>
<!DOCTYPE svg PUBLIC "-//W3C//DTD SVG 20010904//EN"
 "http://www.w3.org/TR/2001/REC-SVG-20010904/DTD/svg10.dtd">
<svg version="1.0" xmlns="http://www.w3.org/2000/svg"
 width="1024.000000pt" height="1024.000000pt" viewBox="0 0 1024.000000 1024.000000"
 preserveAspectRatio="xMidYMid meet">
<metadata>
Created by potrace 1.14, written by Peter Selinger 2001-2017
</metadata>
<g transform="translate(0.000000,1024.000000) scale(0.100000,-0.100000)"
fill="#000000" stroke="none">
<path d="M5026 8166 c-27 -14 -62 -40 -78 -58 -58 -68 -59 -79 -55 -468 2
-195 5 -362 8 -370 16 -51 66 -103 126 -131 144 -67 313 27 329 184 8 77 10
127 4 127 -3 0 -4 24 -2 52 5 113 5 156 -2 167 -4 6 -3 11 3 11 6 0 7 11 3 28
-4 15 -6 38 -5 52 6 63 8 170 3 170 -3 0 -6 22 -7 49 -4 114 -93 199 -218 208
-49 3 -69 -1 -109 -21z"/>
<path d="M3378 7754 c-2 -1 -15 -5 -30 -8 -64 -11 -123 -59 -156 -126 -45 -94
-34 -148 61 -313 31 -54 57 -101 57 -105 0 -3 6 -13 14 -21 8 -9 26 -38 40
-66 15 -27 32 -59 39 -69 38 -62 74 -125 87 -150 24 -47 86 -103 132 -118 165
-56 324 64 313 236 -3 57 -18 88 -119 259 -25 43 -46 82 -46 87 0 6 -3 10 -7
10 -5 0 -17 18 -27 40 -11 22 -23 40 -28 40 -4 0 -8 6 -8 14 0 7 -27 58 -60
113 -59 99 -97 139 -155 161 -31 11 -101 22 -107 16z"/>
<path d="M6780 7700 c-32 -9 -79 -35 -105 -57 -19 -17 -75 -97 -75 -107 0 -3
-24 -45 -53 -93 -28 -48 -63 -109 -77 -135 -14 -27 -28 -48 -32 -48 -5 0 -8
-4 -8 -9 0 -5 -27 -58 -61 -117 -63 -110 -67 -122 -70 -183 -6 -118 98 -230
219 -237 113 -6 197 60 274 216 7 14 15 27 18 30 3 3 10 14 16 25 37 69 75
135 142 248 88 152 101 185 97 253 -5 87 -55 159 -131 194 -46 21 -116 30
-154 20z"/>
<path d="M4967 6594 c-1 -1 -40 -5 -87 -9 -46 -3 -87 -8 -90 -10 -3 -2 -28 -5
-55 -8 -28 -3 -57 -8 -65 -11 -8 -3 -26 -8 -40 -10 -14 -3 -56 -14 -95 -26
-38 -11 -79 -23 -90 -25 -77 -17 -342 -143 -443 -210 -30 -19 -56 -35 -58 -35
-4 0 -59 -41 -133 -99 -86 -67 -233 -208 -298 -287 -93 -111 -206 -273 -243
-349 -8 -16 -17 -32 -20 -35 -9 -8 -68 -135 -105 -225 -30 -72 -89 -252 -100
-301 -2 -10 -10 -50 -19 -89 -8 -38 -17 -91 -20 -117 -3 -26 -8 -58 -11 -70
-20 -88 -20 -412 -1 -553 26 -181 29 -195 50 -196 27 -1 4035 -1 4062 0 21 1
24 12 50 181 14 90 20 436 9 489 -2 13 -7 52 -10 85 -3 34 -7 68 -10 76 -2 8
-6 31 -9 50 -11 68 -30 147 -61 250 -151 505 -479 942 -911 1217 -72 46 -274
153 -288 153 -4 0 -25 8 -49 19 -38 17 -64 27 -122 46 -11 3 -21 6 -22 6 -2 0
-20 6 -42 14 -76 27 -250 60 -368 71 -62 6 -301 12 -306 8z"/>
<path d="M2081 6509 c-48 -10 -81 -29 -120 -69 -90 -92 -88 -230 5 -324 25
-25 51 -46 59 -46 8 0 15 -4 15 -10 0 -5 4 -10 10 -10 5 0 89 -46 185 -102
348 -203 342 -201 416 -201 186 -1 298 206 195 358 -36 53 -48 62 -226 163
-19 10 -117 67 -216 125 -207 119 -244 133 -323 116z"/>
<path d="M7995 6417 c-27 -11 -113 -56 -154 -82 -9 -5 -106 -61 -216 -124
-140 -80 -214 -129 -248 -163 -27 -28 -46 -52 -43 -55 3 -3 -1 -17 -8 -32 -15
-30 -12 -129 4 -145 5 -5 10 -17 10 -25 0 -9 13 -30 28 -46 90 -99 216 -109
344 -29 38 24 66 41 158 92 25 14 61 35 80 47 19 12 42 25 50 29 8 4 33 18 55
31 22 13 56 32 75 42 19 9 40 22 47 28 6 5 28 21 47 35 20 14 36 29 36 34 0 5
6 17 14 25 20 24 35 96 29 149 -14 140 -177 240 -308 189z"/>
<path d="M1569 4792 c-44 -14 -56 -22 -96 -62 -38 -38 -55 -78 -60 -145 -6
-71 17 -132 72 -185 63 -61 92 -65 460 -64 182 0 346 4 365 8 87 21 170 122
173 213 4 94 -58 194 -143 231 -50 23 -708 26 -771 4z"/>
<path d="M7844 4700 c-98 -23 -164 -104 -172 -210 -3 -53 0 -74 17 -112 32
-67 94 -118 161 -133 41 -9 648 -10 703 -1 75 12 153 80 174 151 39 132 -20
256 -144 301 -29 10 -117 13 -373 13 -184 -1 -349 -4 -366 -9z"/>
<path d="M490 3630 c-82 -32 -119 -101 -115 -215 3 -107 52 -173 140 -193 65
-14 9292 -8 9340 6 82 24 125 103 120 221 -5 98 -46 162 -120 183 -30 9 -1132
12 -4682 13 -4209 1 -4646 -1 -4683 -15z"/>
<path d="M240 2470 c-147 -7 -183 -24 -223 -108 -12 -24 -15 -56 -13 -115 4
-112 25 -150 106 -189 32 -16 129 -17 1335 -17 968 0 1308 4 1332 12 30 11 65
38 88 69 33 42 39 191 10 247 -24 47 -61 79 -106 91 -43 12 -2298 20 -2529 10z"/>
<path d="M5275 2469 c-155 -11 -199 -54 -209 -204 -6 -91 30 -165 99 -203 28
-16 221 -17 2465 -20 1836 -2 2446 0 2478 9 94 26 140 112 129 239 -9 94 -45
145 -122 170 -37 12 -4683 21 -4840 9z"/>
</g>
</svg>
